<?xml version="1.0" encoding="UTF-8" standalone="no"?>
<!-- Generator: Adobe Illustrator 20.0.0, SVG Export Plug-In . SVG Version: 6.00 Build 0)  -->

<svg
   xmlns:dc="http://purl.org/dc/elements/1.1/"
   xmlns:cc="http://creativecommons.org/ns#"
   xmlns:rdf="http://www.w3.org/1999/02/22-rdf-syntax-ns#"
   xmlns:svg="http://www.w3.org/2000/svg"
   xmlns="http://www.w3.org/2000/svg"
   xmlns:sodipodi="http://sodipodi.sourceforge.net/DTD/sodipodi-0.dtd"
   xmlns:inkscape="http://www.inkscape.org/namespaces/inkscape"
   version="1.1"
   x="0px"
   y="0px"
   viewBox="0 0 32 32"
   style="enable-background:new 0 0 32 32;"
   xml:space="preserve"
   width="32px"
   height="32px"
   class="br-symbol-library"
   id="svg5"
   sodipodi:docname="Notification_ Maintainance.svg"
   inkscape:version="0.92.3 (2405546, 2018-03-11)"><metadata
   id="metadata11"><rdf:RDF><cc:Work
       rdf:about=""><dc:format>image/svg+xml</dc:format><dc:type
         rdf:resource="http://purl.org/dc/dcmitype/StillImage" /></cc:Work></rdf:RDF></metadata><defs
   id="defs9" /><sodipodi:namedview
   pagecolor="#ffffff"
   bordercolor="#666666"
   borderopacity="1"
   objecttolerance="10"
   gridtolerance="10"
   guidetolerance="10"
   inkscape:pageopacity="0"
   inkscape:pageshadow="2"
   inkscape:window-width="1920"
   inkscape:window-height="1121"
   id="namedview7"
   showgrid="false"
   inkscape:zoom="20.85965"
   inkscape:cx="8.0294516"
   inkscape:cy="18.901585"
   inkscape:window-x="1911"
   inkscape:window-y="-9"
   inkscape:window-maximized="1"
   inkscape:current-layer="svg5" />
<g
   id="Information">
	<path
   id="Information_3_"
   d="M 16,0 C 7.165,0 0,7.163 0,16 0,24.838 7.165,32 16,32 24.835,32 32,24.838 32,16 32,7.163 24.835,0 16,0 Z"
   inkscape:connector-curvature="0"
   sodipodi:nodetypes="sssss" />
</g>
<g
   id="Ebene_1">
</g>
<g
   id="g828"
   transform="matrix(0.66597698,0,0,0.66597698,4.9272339,5.3556845)"
   style="fill:#ffffff;fill-opacity:1"><g
     id="TouchMe"
     style="fill:#ffffff;fill-opacity:1">
	<path
   id="path814"
   d="m 26.9,10.9 c 0,1.8 -0.4,3.4 -1.2,4.9 -0.3,-0.3 -0.8,-0.6 -1.3,-0.8 v 0 c 0.6,-1.2 0.9,-2.6 0.9,-4.1 0,-5.2 -4.2,-9.4 -9.4,-9.4 -5.2,0 -9.4,4.2 -9.4,9.4 0,2 0.6,3.8 1.6,5.3 L 7.4,17 C 7.3,17.1 7.3,17.1 7.2,17.2 5.9,15.4 5.1,13.2 5.1,10.8 5.1,4.9 10,0 16,0 22,0 26.9,4.9 26.9,10.9 Z M 16,3.4 c -4.1,0 -7.5,3.4 -7.5,7.5 0,1.5 0.4,2.9 1.2,4.1 0.3,-0.1 0.7,-0.2 1.1,-0.2 0.2,0 0.3,0 0.5,0 0,-0.1 0,-0.1 0,-0.2 -0.8,-1 -1.3,-2.3 -1.3,-3.7 0,-3.3 2.7,-6 6,-6 3.3,0 6,2.7 6,6 0,1.2 -0.3,2.2 -0.9,3.1 l 1.5,0.4 c 0.6,-1.1 0.9,-2.3 0.9,-3.6 0,-4.1 -3.4,-7.4 -7.5,-7.4 z m 6.7,25.1 h -9.4 c -0.5,0 -0.8,0.5 -0.8,1 V 32 h 11 v -2.5 c 0,-0.5 -0.3,-1 -0.8,-1 z m 1.2,-11.6 -5.4,-1.5 v -2.9 c 0,-1.8 -1.3,-2.7 -2.6,-2.7 -1.3,0 -2.6,0.9 -2.6,2.7 0,1.6 0,4.2 0,5.9 l -2,-1.5 C 11,16.6 10.5,16.7 10.2,17 l -1.4,1.4 c -0.3,0.3 -0.3,0.7 -0.2,1 l 3.9,7.9 c 0.1,0.3 0.4,0.5 0.8,0.5 h 8.6 c 0.3,0 0.6,-0.2 0.8,-0.5 l 1.7,-3.4 c 0.1,-0.1 0.1,-0.2 0.1,-0.4 v -5.8 c 0,-0.4 -0.3,-0.7 -0.6,-0.8 z m -1.2,6.4 -1.4,2.7 h -7.5 l -3.4,-6.8 0.5,-0.5 2.8,2.1 C 14,21 14.3,21 14.6,20.9 14.9,20.8 15,20.4 15,20 c 0,0 0,-5.9 0,-8.4 0,-0.8 0.5,-0.6 0.9,-0.6 0.4,0 0.9,-0.2 0.9,0.6 V 16 c 0,0.4 0.3,0.7 0.6,0.8 l 5.4,1.5 v 5 z"
   inkscape:connector-curvature="0"
   style="fill:#ffffff;fill-opacity:1" />
</g><g
     id="Ebene_1_1_"
     style="fill:#ffffff;fill-opacity:1">
</g></g></svg>