<?xml version="1.0" encoding="UTF-8" standalone="no"?>
<!-- Generator: Adobe Illustrator 20.0.0, SVG Export Plug-In . SVG Version: 6.00 Build 0)  -->

<svg
   xmlns:dc="http://purl.org/dc/elements/1.1/"
   xmlns:cc="http://creativecommons.org/ns#"
   xmlns:rdf="http://www.w3.org/1999/02/22-rdf-syntax-ns#"
   xmlns:svg="http://www.w3.org/2000/svg"
   xmlns="http://www.w3.org/2000/svg"
   xmlns:sodipodi="http://sodipodi.sourceforge.net/DTD/sodipodi-0.dtd"
   xmlns:inkscape="http://www.inkscape.org/namespaces/inkscape"
   version="1.1"
   x="0px"
   y="0px"
   viewBox="0 0 32 32"
   style="enable-background:new 0 0 32 32;"
   xml:space="preserve"
   width="32px"
   height="32px"
   class="br-symbol-library"
   id="svg5"
   sodipodi:docname="Notification_Service.svg"
   inkscape:version="0.92.3 (2405546, 2018-03-11)"><metadata
   id="metadata11"><rdf:RDF><cc:Work
       rdf:about=""><dc:format>image/svg+xml</dc:format><dc:type
         rdf:resource="http://purl.org/dc/dcmitype/StillImage" /></cc:Work></rdf:RDF></metadata><defs
   id="defs9" /><sodipodi:namedview
   pagecolor="#ffffff"
   bordercolor="#666666"
   borderopacity="1"
   objecttolerance="10"
   gridtolerance="10"
   guidetolerance="10"
   inkscape:pageopacity="0"
   inkscape:pageshadow="2"
   inkscape:window-width="1920"
   inkscape:window-height="1121"
   id="namedview7"
   showgrid="false"
   inkscape:zoom="20.85965"
   inkscape:cx="8.0294516"
   inkscape:cy="18.901585"
   inkscape:window-x="1911"
   inkscape:window-y="-9"
   inkscape:window-maximized="1"
   inkscape:current-layer="svg5" />
<g
   id="Information">
	<path
   id="Information_3_"
   d="M 16,0 C 7.165,0 0,7.163 0,16 0,24.838 7.165,32 16,32 24.835,32 32,24.838 32,16 32,7.163 24.835,0 16,0 Z"
   inkscape:connector-curvature="0"
   sodipodi:nodetypes="sssss" />
</g>
<g
   id="Ebene_1">
</g>
<g
   id="g828"
   transform="matrix(0.62385832,0,0,0.62385832,5.9476125,5.8847775)"
   style="fill:#ffffff;fill-opacity:1"><g
     id="Service"
     style="fill:#ffffff;fill-opacity:1">
	<path
   id="path814"
   d="m 19.9,25.9 c -0.5,0.2 -1,0.4 -1.6,0.5 l -1,4 c -0.6,0.1 -1.3,0.1 -2,0.1 -0.7,0 -1.3,-0.1 -2,-0.1 l -1,-4 c -1,-0.3 -1.9,-0.6 -2.8,-1.1 L 6,27.5 C 5,26.7 4,25.8 3.2,24.7 L 5.3,21.1 C 4.8,20.2 4.4,19.3 4.2,18.3 l -4,-1 C 0.1,16.7 0,16 0,15.3 0,14.6 0.1,14 0.1,13.3 l 4,-1 c 0.3,-1 0.6,-1.9 1.1,-2.8 L 3.2,6 C 4,5 4.9,4 6,3.2 l 3.6,2.1 c 0.9,-0.5 1.8,-0.9 2.8,-1.1 l 1,-4 C 14,0.1 14.6,0 15.3,0 c 0.7,0 1.3,0.1 2,0.1 l 1,4 c 1,0.3 1.9,0.6 2.8,1.1 l 3.6,-2.1 c 1,0.8 2,1.7 2.8,2.8 l -2.1,3.6 c 0.5,0.9 0.9,1.8 1.1,2.8 l 4,1 c 0.1,0.6 0.1,1.3 0.1,2 0,0.7 -0.1,1.3 -0.1,2 l -4,1 c -0.2,0.6 -0.4,1.2 -0.6,1.7 l -3,-3 c 0.1,-0.5 0.2,-1.1 0.2,-1.7 0,-4.2 -3.4,-7.7 -7.7,-7.7 -4.3,0 -7.7,3.4 -7.7,7.7 0,4.3 3.4,7.7 7.7,7.7 0.5,0 1,-0.1 1.5,-0.1 z m -7.3,-5.7 c 1.5,0.8 3.2,1 4.7,0.4 l 9.7,9.7 1.4,1.4 c 0.4,0.4 1,0.4 1.4,0 l 2,-2 c 0.4,-0.4 0.4,-1 0,-1.4 L 20.6,17.2 C 21.4,14.7 20.4,12 18,10.6 16.2,9.6 14.2,9.4 12.3,10.8 l 4.8,2.6 -2.7,4.3 -4.6,-2.3 c -0.1,2.2 1,3.8 2.8,4.8 z"
   inkscape:connector-curvature="0"
   style="fill:#ffffff;fill-opacity:1" />
</g><g
     id="Ebene_1_1_"
     style="fill:#ffffff;fill-opacity:1">
</g></g></svg>