<?xml version="1.0" encoding="UTF-8" standalone="no"?>
<!-- Generator: Adobe Illustrator 20.0.0, SVG Export Plug-In . SVG Version: 6.00 Build 0)  -->

<svg
   xmlns:dc="http://purl.org/dc/elements/1.1/"
   xmlns:cc="http://creativecommons.org/ns#"
   xmlns:rdf="http://www.w3.org/1999/02/22-rdf-syntax-ns#"
   xmlns:svg="http://www.w3.org/2000/svg"
   xmlns="http://www.w3.org/2000/svg"
   xmlns:sodipodi="http://sodipodi.sourceforge.net/DTD/sodipodi-0.dtd"
   xmlns:inkscape="http://www.inkscape.org/namespaces/inkscape"
   version="1.1"
   x="0px"
   y="0px"
   viewBox="0 0 32 32"
   style="enable-background:new 0 0 32 32;"
   xml:space="preserve"
   width="32px"
   height="32px"
   class="br-symbol-library"
   id="svg5"
   sodipodi:docname="Option_Heating.svg"
   inkscape:version="0.92.3 (2405546, 2018-03-11)"><metadata
   id="metadata11"><rdf:RDF><cc:Work
       rdf:about=""><dc:format>image/svg+xml</dc:format><dc:type
         rdf:resource="http://purl.org/dc/dcmitype/StillImage" /></cc:Work></rdf:RDF></metadata><defs
   id="defs9" /><sodipodi:namedview
   pagecolor="#ffffff"
   bordercolor="#666666"
   borderopacity="1"
   objecttolerance="10"
   gridtolerance="10"
   guidetolerance="10"
   inkscape:pageopacity="0"
   inkscape:pageshadow="2"
   inkscape:window-width="1920"
   inkscape:window-height="1121"
   id="namedview7"
   showgrid="false"
   inkscape:zoom="7.375"
   inkscape:cx="-35.075217"
   inkscape:cy="11.922085"
   inkscape:window-x="1911"
   inkscape:window-y="-9"
   inkscape:window-maximized="1"
   inkscape:current-layer="svg5" />
<g
   id="Information">
	<path
   id="Information_3_"
   d="M 16,0 C 7.165,0 0,7.163 0,16 0,24.838 7.165,32 16,32 24.835,32 32,24.838 32,16 32,7.163 24.835,0 16,0 Z"
   inkscape:connector-curvature="0"
   sodipodi:nodetypes="sssss" />
</g>
<g
   id="Ebene_1">
</g>
<path
   style="fill:#ffffff;fill-opacity:1;fill-rule:nonzero;stroke-width:0.91397911"
   inkscape:transform-center-x="-0.058227976"
   inkscape:transform-center-y="0.012539901"
   d="m 24.416406,18.987222 c 0.05317,1.867388 -0.975392,4.99626 -0.975392,4.99626 l -3.077542,0.004 -2.295137,-0.01215 -3.140985,-0.01079 c 0,0 -4.240511,0.511393 -5.1639406,-1.044358 C 8.601624,20.962902 8.2396169,18.297622 8.803436,16.057717 c 0.2830192,-1.12436 2.212553,-3.954833 2.055319,-2.806109 -0.240849,1.759602 -9.43e-4,4.159386 1.50786,5.074325 0.114143,0.06922 0.281338,0.02774 0.393133,-0.07631 2.922615,-2.720149 -5.7291335,-5.81542 2.550644,-13.0658901 l 0.409566,-0.4365842 c 0,0 -1.15499,6.3210433 0.173845,8.2480373 1.304166,1.89122 0.78178,-4.4132297 0.78178,-4.4132297 0,0 1.738624,1.8649857 2.376227,3.5049977 1.032101,2.654723 -1.828647,5.347911 0.121464,6.599894 0.932442,0.598633 2.585159,-3.782038 1.457232,-4.465868 -0.989957,-0.600182 3.665675,0.543519 3.7859,4.766243 z"
   id="path849"
   inkscape:connector-curvature="0"
   sodipodi:nodetypes="sccccsasasscscssss" /></svg>